<mxfile host="app.diagrams.net" agent="Mozilla/5.0 (Windows NT 10.0; Win64; x64) AppleWebKit/537.36 (KHTML, like Gecko) Chrome/136.0.0.0 Safari/537.36" version="27.0.3">
  <diagram name="Page-1" id="xXsOjZ-kMZfIS7d9MTo8">
    <mxGraphModel dx="3477" dy="3015" grid="1" gridSize="10" guides="1" tooltips="1" connect="1" arrows="1" fold="1" page="1" pageScale="1" pageWidth="1100" pageHeight="1700" math="0" shadow="0">
      <root>
        <mxCell id="0" />
        <mxCell id="1" parent="0" />
        <mxCell id="u3y3h4aaGRYCksMbSNTa-146" style="edgeStyle=orthogonalEdgeStyle;rounded=0;orthogonalLoop=1;jettySize=auto;html=1;" parent="1" edge="1">
          <mxGeometry relative="1" as="geometry">
            <mxPoint y="631" as="targetPoint" />
            <mxPoint x="310" y="631" as="sourcePoint" />
            <Array as="points">
              <mxPoint x="180" y="631" />
              <mxPoint x="180" y="631" />
            </Array>
          </mxGeometry>
        </mxCell>
        <mxCell id="u3y3h4aaGRYCksMbSNTa-170" style="edgeStyle=orthogonalEdgeStyle;rounded=0;orthogonalLoop=1;jettySize=auto;html=1;" parent="1" edge="1">
          <mxGeometry relative="1" as="geometry">
            <mxPoint y="790" as="targetPoint" />
            <mxPoint x="310" y="790" as="sourcePoint" />
          </mxGeometry>
        </mxCell>
        <mxCell id="WDX3vNqjva9tqvP2y725-41" style="edgeStyle=orthogonalEdgeStyle;rounded=0;orthogonalLoop=1;jettySize=auto;html=1;" edge="1" parent="1">
          <mxGeometry relative="1" as="geometry">
            <mxPoint x="1040" y="1400" as="targetPoint" />
            <mxPoint x="550" y="960" as="sourcePoint" />
            <Array as="points">
              <mxPoint x="550" y="1660" />
              <mxPoint x="1040" y="1660" />
            </Array>
          </mxGeometry>
        </mxCell>
        <mxCell id="UhX584XFw8gSICuTclrN-4" value="" style="rounded=1;whiteSpace=wrap;html=1;absoluteArcSize=1;arcSize=81;strokeWidth=2;fontFamily=Lucida Console;fontSize=15;" parent="1" vertex="1">
          <mxGeometry x="321" y="469" width="509" height="481" as="geometry" />
        </mxCell>
        <mxCell id="UhX584XFw8gSICuTclrN-5" value="" style="line;strokeWidth=2;rotatable=0;dashed=0;labelPosition=right;align=left;verticalAlign=middle;spacingTop=0;spacingLeft=6;points=[];portConstraint=eastwest;fontFamily=Lucida Console;fontSize=15;" parent="1" vertex="1">
          <mxGeometry x="321" y="539" width="509" height="10" as="geometry" />
        </mxCell>
        <mxCell id="UhX584XFw8gSICuTclrN-6" value="&lt;font style=&quot;font-size: 26px;&quot;&gt;0&lt;/font&gt;" style="text;html=1;align=center;verticalAlign=middle;resizable=0;points=[];autosize=1;strokeColor=none;fillColor=none;fontFamily=Lucida Console;fontSize=15;" parent="1" vertex="1">
          <mxGeometry x="560" y="500" width="40" height="40" as="geometry" />
        </mxCell>
        <mxCell id="UhX584XFw8gSICuTclrN-7" value="&lt;p align=&quot;center&quot; class=&quot;MsoNormal&quot;&gt;&lt;b&gt;&lt;span style=&quot;line-height: 107%;&quot;&gt;&lt;font style=&quot;font-size: 28px;&quot; face=&quot;Lucida Console&quot;&gt;Cloud-Based Scholarship&amp;nbsp;&lt;/font&gt;&lt;/span&gt;&lt;/b&gt;&lt;/p&gt;&lt;p align=&quot;center&quot; class=&quot;MsoNormal&quot;&gt;&lt;font style=&quot;font-size: 28px;&quot;&gt;&lt;b&gt;&lt;span style=&quot;line-height: 107%;&quot;&gt;&lt;font style=&quot;&quot; face=&quot;Lucida Console&quot;&gt;Management and&amp;nbsp;&lt;/font&gt;&lt;/span&gt;&lt;/b&gt;&lt;b style=&quot;background-color: transparent; color: light-dark(rgb(0, 0, 0), rgb(255, 255, 255));&quot;&gt;&lt;span style=&quot;line-height: 107%;&quot;&gt;&lt;font style=&quot;&quot; face=&quot;Lucida Console&quot;&gt;Monitoring&amp;nbsp;&lt;/font&gt;&lt;/span&gt;&lt;/b&gt;&lt;/font&gt;&lt;/p&gt;&lt;p align=&quot;center&quot; class=&quot;MsoNormal&quot;&gt;&lt;font style=&quot;font-size: 28px;&quot;&gt;&lt;font style=&quot;&quot;&gt;&lt;b style=&quot;background-color: transparent; color: light-dark(rgb(0, 0, 0), rgb(255, 255, 255));&quot;&gt;&lt;span style=&quot;line-height: 107%;&quot;&gt;&lt;font style=&quot;&quot; face=&quot;Lucida Console&quot;&gt;System&amp;nbsp;&lt;/font&gt;&lt;/span&gt;&lt;/b&gt;&lt;/font&gt;&lt;b style=&quot;background-color: transparent; color: light-dark(rgb(0, 0, 0), rgb(255, 255, 255));&quot;&gt;&lt;span style=&quot;line-height: 107%;&quot;&gt;&lt;font style=&quot;&quot; face=&quot;Lucida Console&quot;&gt;for GRC MLALAF&amp;nbsp;&lt;/font&gt;&lt;/span&gt;&lt;/b&gt;&lt;/font&gt;&lt;/p&gt;&lt;p align=&quot;center&quot; class=&quot;MsoNormal&quot;&gt;&lt;b style=&quot;background-color: transparent; color: light-dark(rgb(0, 0, 0), rgb(255, 255, 255));&quot;&gt;&lt;span style=&quot;line-height: 107%;&quot;&gt;&lt;font style=&quot;font-size: 28px;&quot; face=&quot;Lucida Console&quot;&gt;Scholarship&lt;/font&gt;&lt;/span&gt;&lt;/b&gt;&lt;/p&gt;" style="text;html=1;align=center;verticalAlign=middle;resizable=0;points=[];autosize=1;strokeColor=none;fillColor=none;fontFamily=Lucida Console;fontSize=15;fontStyle=1" parent="1" vertex="1">
          <mxGeometry x="340" y="650" width="480" height="200" as="geometry" />
        </mxCell>
        <mxCell id="WDX3vNqjva9tqvP2y725-53" style="edgeStyle=orthogonalEdgeStyle;rounded=0;orthogonalLoop=1;jettySize=auto;html=1;" edge="1" parent="1">
          <mxGeometry relative="1" as="geometry">
            <mxPoint x="760" y="960" as="targetPoint" />
            <mxPoint x="940" y="1260" as="sourcePoint" />
            <Array as="points">
              <mxPoint x="940" y="1020" />
              <mxPoint x="760" y="1020" />
            </Array>
          </mxGeometry>
        </mxCell>
        <mxCell id="WDX3vNqjva9tqvP2y725-60" style="edgeStyle=orthogonalEdgeStyle;rounded=0;orthogonalLoop=1;jettySize=auto;html=1;" edge="1" parent="1">
          <mxGeometry relative="1" as="geometry">
            <mxPoint x="840" y="890" as="targetPoint" />
            <mxPoint x="1040" y="1260" as="sourcePoint" />
            <Array as="points">
              <mxPoint x="1040" y="890" />
            </Array>
          </mxGeometry>
        </mxCell>
        <mxCell id="UhX584XFw8gSICuTclrN-8" value="&lt;font style=&quot;font-size: 19px;&quot;&gt;Scholar&lt;/font&gt;" style="html=1;dashed=0;whiteSpace=wrap;shape=mxgraph.dfd.externalEntity;fontFamily=Lucida Console;fontSize=15;" parent="1" vertex="1">
          <mxGeometry x="831" y="1265" width="220" height="120" as="geometry" />
        </mxCell>
        <mxCell id="UhX584XFw8gSICuTclrN-10" value="req. for Renewal" style="text;html=1;align=center;verticalAlign=middle;whiteSpace=wrap;rounded=0;fontFamily=Lucida Console;fontSize=15;" parent="1" vertex="1">
          <mxGeometry x="856.5" y="926" width="160" height="30" as="geometry" />
        </mxCell>
        <mxCell id="UhX584XFw8gSICuTclrN-11" value="Chosen Sched,&lt;div&gt;Dept,Church&lt;/div&gt;" style="text;html=1;align=center;verticalAlign=middle;whiteSpace=wrap;rounded=0;fontFamily=Lucida Console;fontSize=15;" parent="1" vertex="1">
          <mxGeometry x="827" y="898" width="240" height="30" as="geometry" />
        </mxCell>
        <mxCell id="UhX584XFw8gSICuTclrN-12" value="name, email" style="text;html=1;align=center;verticalAlign=middle;whiteSpace=wrap;rounded=0;fontFamily=Lucida Console;fontSize=15;" parent="1" vertex="1">
          <mxGeometry x="757" y="1014" width="149" height="30" as="geometry" />
        </mxCell>
        <mxCell id="UhX584XFw8gSICuTclrN-13" value="new username,password" style="text;html=1;align=center;verticalAlign=middle;whiteSpace=wrap;rounded=0;fontFamily=Lucida Console;fontSize=15;" parent="1" vertex="1">
          <mxGeometry x="776" y="977" width="209" height="30" as="geometry" />
        </mxCell>
        <mxCell id="UhX584XFw8gSICuTclrN-15" value="fellowship attendance" style="text;html=1;align=center;verticalAlign=middle;whiteSpace=wrap;rounded=0;fontFamily=Lucida Console;fontSize=15;" parent="1" vertex="1">
          <mxGeometry x="741" y="997" width="240" height="30" as="geometry" />
        </mxCell>
        <mxCell id="UhX584XFw8gSICuTclrN-16" value="Gratis duty &amp;amp; fellowship record" style="text;html=1;align=center;verticalAlign=middle;whiteSpace=wrap;rounded=0;fontFamily=Lucida Console;fontSize=15;" parent="1" vertex="1">
          <mxGeometry x="670" y="1577" width="290" height="30" as="geometry" />
        </mxCell>
        <mxCell id="UhX584XFw8gSICuTclrN-17" value="grantslip(e certi)" style="text;html=1;align=center;verticalAlign=middle;whiteSpace=wrap;rounded=0;fontFamily=Lucida Console;fontSize=15;" parent="1" vertex="1">
          <mxGeometry x="653" y="1516" width="290" height="30" as="geometry" />
        </mxCell>
        <mxCell id="UhX584XFw8gSICuTclrN-18" value="available dept." style="text;html=1;align=center;verticalAlign=middle;whiteSpace=wrap;rounded=0;fontFamily=Lucida Console;fontSize=15;" parent="1" vertex="1">
          <mxGeometry x="640" y="1497" width="290" height="30" as="geometry" />
        </mxCell>
        <mxCell id="UhX584XFw8gSICuTclrN-19" value="approval of exit" style="text;html=1;align=center;verticalAlign=middle;whiteSpace=wrap;rounded=0;fontFamily=Lucida Console;fontSize=15;" parent="1" vertex="1">
          <mxGeometry x="631" y="1478" width="290" height="30" as="geometry" />
        </mxCell>
        <mxCell id="UhX584XFw8gSICuTclrN-20" value="date of renewal,fellowship and grand fellowship" style="text;html=1;align=center;verticalAlign=middle;whiteSpace=wrap;rounded=0;fontFamily=Lucida Console;fontSize=15;" parent="1" vertex="1">
          <mxGeometry x="580" y="1633" width="440" height="30" as="geometry" />
        </mxCell>
        <mxCell id="UhX584XFw8gSICuTclrN-21" value="violation hours" style="text;html=1;align=center;verticalAlign=middle;whiteSpace=wrap;rounded=0;fontFamily=Lucida Console;fontSize=15;" parent="1" vertex="1">
          <mxGeometry x="715" y="1537" width="160" height="30" as="geometry" />
        </mxCell>
        <mxCell id="UhX584XFw8gSICuTclrN-22" value="Total Gratis Hours Required" style="text;html=1;align=center;verticalAlign=middle;whiteSpace=wrap;rounded=0;fontFamily=Lucida Console;fontSize=15;" parent="1" vertex="1">
          <mxGeometry x="661" y="1595" width="290" height="30" as="geometry" />
        </mxCell>
        <mxCell id="UhX584XFw8gSICuTclrN-23" value="Account credentials (partial or full)" style="text;html=1;align=center;verticalAlign=middle;whiteSpace=wrap;rounded=0;fontFamily=Lucida Console;fontSize=15;" parent="1" vertex="1">
          <mxGeometry x="640" y="1616" width="350" height="30" as="geometry" />
        </mxCell>
        <mxCell id="UhX584XFw8gSICuTclrN-24" value="QR code of Dept. &amp;amp; Church" style="text;html=1;align=center;verticalAlign=middle;whiteSpace=wrap;rounded=0;fontFamily=Lucida Console;fontSize=15;" parent="1" vertex="1">
          <mxGeometry x="620" y="1556" width="350" height="30" as="geometry" />
        </mxCell>
        <mxCell id="UhX584XFw8gSICuTclrN-25" value="Semester Id" style="text;html=1;align=center;verticalAlign=middle;whiteSpace=wrap;rounded=0;fontFamily=Lucida Console;fontSize=15;" parent="1" vertex="1">
          <mxGeometry x="707" y="1437" width="134" height="30" as="geometry" />
        </mxCell>
        <mxCell id="u3y3h4aaGRYCksMbSNTa-130" style="edgeStyle=orthogonalEdgeStyle;rounded=0;orthogonalLoop=1;jettySize=auto;html=1;" parent="1" edge="1">
          <mxGeometry relative="1" as="geometry">
            <mxPoint x="360" y="460" as="targetPoint" />
            <mxPoint x="180" y="230" as="sourcePoint" />
            <Array as="points">
              <mxPoint x="360" y="230" />
            </Array>
          </mxGeometry>
        </mxCell>
        <mxCell id="u3y3h4aaGRYCksMbSNTa-136" style="edgeStyle=orthogonalEdgeStyle;rounded=0;orthogonalLoop=1;jettySize=auto;html=1;exitX=0.636;exitY=0;exitDx=0;exitDy=0;exitPerimeter=0;" parent="1" source="UhX584XFw8gSICuTclrN-26" edge="1">
          <mxGeometry relative="1" as="geometry">
            <mxPoint x="420" y="460" as="targetPoint" />
            <mxPoint x="90" y="110" as="sourcePoint" />
            <Array as="points">
              <mxPoint x="100" y="120" />
              <mxPoint x="100" y="110" />
              <mxPoint x="420" y="110" />
            </Array>
          </mxGeometry>
        </mxCell>
        <mxCell id="UhX584XFw8gSICuTclrN-26" value="&lt;font style=&quot;font-size: 19px;&quot;&gt;Scholarship Admin&lt;/font&gt;" style="html=1;dashed=0;whiteSpace=wrap;shape=mxgraph.dfd.externalEntity;fontFamily=Lucida Console;fontSize=15;" parent="1" vertex="1">
          <mxGeometry x="-50" y="120" width="220" height="120" as="geometry" />
        </mxCell>
        <mxCell id="u3y3h4aaGRYCksMbSNTa-1" value="Semester Id" style="text;html=1;align=center;verticalAlign=middle;whiteSpace=wrap;rounded=0;fontFamily=Lucida Console;fontSize=15;" parent="1" vertex="1">
          <mxGeometry x="158" y="165" width="240" height="30" as="geometry" />
        </mxCell>
        <mxCell id="WDX3vNqjva9tqvP2y725-27" style="edgeStyle=orthogonalEdgeStyle;rounded=0;orthogonalLoop=1;jettySize=auto;html=1;" edge="1" parent="1">
          <mxGeometry relative="1" as="geometry">
            <mxPoint x="920" y="110" as="targetPoint" />
            <mxPoint x="650" y="460" as="sourcePoint" />
            <Array as="points">
              <mxPoint x="650" y="90" />
              <mxPoint x="920" y="90" />
            </Array>
          </mxGeometry>
        </mxCell>
        <mxCell id="WDX3vNqjva9tqvP2y725-30" style="edgeStyle=orthogonalEdgeStyle;rounded=0;orthogonalLoop=1;jettySize=auto;html=1;" edge="1" parent="1">
          <mxGeometry relative="1" as="geometry">
            <mxPoint x="730" y="460" as="targetPoint" />
            <mxPoint x="1030" y="250" as="sourcePoint" />
            <Array as="points">
              <mxPoint x="1030" y="430" />
              <mxPoint x="730" y="430" />
            </Array>
          </mxGeometry>
        </mxCell>
        <mxCell id="u3y3h4aaGRYCksMbSNTa-2" value="&lt;font style=&quot;font-size: 19px;&quot;&gt;Applicant&lt;/font&gt;" style="html=1;dashed=0;whiteSpace=wrap;shape=mxgraph.dfd.externalEntity;fontFamily=Lucida Console;fontSize=15;" parent="1" vertex="1">
          <mxGeometry x="831" y="118" width="220" height="120" as="geometry" />
        </mxCell>
        <mxCell id="WDX3vNqjva9tqvP2y725-38" style="edgeStyle=orthogonalEdgeStyle;rounded=0;orthogonalLoop=1;jettySize=auto;html=1;" edge="1" parent="1">
          <mxGeometry relative="1" as="geometry">
            <mxPoint x="1100" y="570" as="targetPoint" />
            <mxPoint x="840" y="500" as="sourcePoint" />
            <Array as="points">
              <mxPoint x="1100" y="500" />
              <mxPoint x="1100" y="570" />
            </Array>
          </mxGeometry>
        </mxCell>
        <mxCell id="u3y3h4aaGRYCksMbSNTa-3" value="&lt;font style=&quot;font-size: 19px;&quot;&gt;Validator&lt;/font&gt;" style="html=1;dashed=0;whiteSpace=wrap;shape=mxgraph.dfd.externalEntity;fontFamily=Lucida Console;fontSize=15;" parent="1" vertex="1">
          <mxGeometry x="970" y="575" width="220" height="120" as="geometry" />
        </mxCell>
        <mxCell id="u3y3h4aaGRYCksMbSNTa-4" value="&lt;font style=&quot;font-size: 19px;&quot;&gt;Dept Personnel&lt;/font&gt;" style="html=1;dashed=0;whiteSpace=wrap;shape=mxgraph.dfd.externalEntity;fontFamily=Lucida Console;fontSize=15;" parent="1" vertex="1">
          <mxGeometry x="-220" y="790" width="220" height="120" as="geometry" />
        </mxCell>
        <mxCell id="u3y3h4aaGRYCksMbSNTa-5" value="&lt;font style=&quot;font-size: 19px;&quot;&gt;Church Personnel&lt;/font&gt;" style="html=1;dashed=0;whiteSpace=wrap;shape=mxgraph.dfd.externalEntity;fontFamily=Lucida Console;fontSize=15;" parent="1" vertex="1">
          <mxGeometry x="-220" y="1050" width="220" height="120" as="geometry" />
        </mxCell>
        <mxCell id="u3y3h4aaGRYCksMbSNTa-6" value="&lt;font style=&quot;font-size: 19px;&quot;&gt;Dept Head&lt;/font&gt;" style="html=1;dashed=0;whiteSpace=wrap;shape=mxgraph.dfd.externalEntity;fontFamily=Lucida Console;fontSize=15;" parent="1" vertex="1">
          <mxGeometry x="-225" y="619" width="220" height="161" as="geometry" />
        </mxCell>
        <mxCell id="u3y3h4aaGRYCksMbSNTa-7" value="&lt;font style=&quot;font-size: 19px;&quot;&gt;Church Head&lt;/font&gt;" style="html=1;dashed=0;whiteSpace=wrap;shape=mxgraph.dfd.externalEntity;fontFamily=Lucida Console;fontSize=15;" parent="1" vertex="1">
          <mxGeometry x="-220" y="920" width="220" height="120" as="geometry" />
        </mxCell>
        <mxCell id="u3y3h4aaGRYCksMbSNTa-8" value="&lt;font style=&quot;font-size: 19px;&quot;&gt;monitoring&lt;/font&gt;" style="html=1;dashed=0;whiteSpace=wrap;shape=mxgraph.dfd.externalEntity;fontFamily=Lucida Console;fontSize=15;" parent="1" vertex="1">
          <mxGeometry x="-38" y="1265" width="220" height="120" as="geometry" />
        </mxCell>
        <mxCell id="u3y3h4aaGRYCksMbSNTa-10" value="available slot in dept" style="text;html=1;align=center;verticalAlign=middle;whiteSpace=wrap;rounded=0;fontFamily=Lucida Console;fontSize=15;" parent="1" vertex="1">
          <mxGeometry x="10" y="684.5" width="290" height="30" as="geometry" />
        </mxCell>
        <mxCell id="u3y3h4aaGRYCksMbSNTa-11" value="Account Credentials" style="text;html=1;align=center;verticalAlign=middle;whiteSpace=wrap;rounded=0;fontFamily=Lucida Console;fontSize=15;" parent="1" vertex="1">
          <mxGeometry x="10" y="624" width="290" height="30" as="geometry" />
        </mxCell>
        <mxCell id="u3y3h4aaGRYCksMbSNTa-15" value="name, email" style="text;html=1;align=center;verticalAlign=middle;whiteSpace=wrap;rounded=0;fontFamily=Lucida Console;fontSize=15;" parent="1" vertex="1">
          <mxGeometry y="704" width="290" height="30" as="geometry" />
        </mxCell>
        <mxCell id="u3y3h4aaGRYCksMbSNTa-16" value="new username, password" style="text;html=1;align=center;verticalAlign=middle;whiteSpace=wrap;rounded=0;fontFamily=Lucida Console;fontSize=15;" parent="1" vertex="1">
          <mxGeometry x="10" y="665" width="290" height="30" as="geometry" />
        </mxCell>
        <mxCell id="u3y3h4aaGRYCksMbSNTa-19" value="Dept name" style="text;html=1;align=center;verticalAlign=middle;whiteSpace=wrap;rounded=0;fontFamily=Lucida Console;fontSize=15;" parent="1" vertex="1">
          <mxGeometry y="723" width="290" height="30" as="geometry" />
        </mxCell>
        <mxCell id="u3y3h4aaGRYCksMbSNTa-21" value="List of Scholar in Dept" style="text;html=1;align=center;verticalAlign=middle;whiteSpace=wrap;rounded=0;fontFamily=Lucida Console;fontSize=15;" parent="1" vertex="1">
          <mxGeometry x="10" y="607" width="290" height="30" as="geometry" />
        </mxCell>
        <mxCell id="u3y3h4aaGRYCksMbSNTa-22" value="Account Credentials" style="text;html=1;align=center;verticalAlign=middle;whiteSpace=wrap;rounded=0;fontFamily=Lucida Console;fontSize=15;" parent="1" vertex="1">
          <mxGeometry x="81.5" y="1037" width="190" height="30" as="geometry" />
        </mxCell>
        <mxCell id="u3y3h4aaGRYCksMbSNTa-23" value="Info in Scholar scanned" style="text;html=1;align=center;verticalAlign=middle;whiteSpace=wrap;rounded=0;fontFamily=Lucida Console;fontSize=15;" parent="1" vertex="1">
          <mxGeometry x="57" y="1056" width="244" height="30" as="geometry" />
        </mxCell>
        <mxCell id="u3y3h4aaGRYCksMbSNTa-24" value="QR Code of Department" style="text;html=1;align=center;verticalAlign=middle;whiteSpace=wrap;rounded=0;fontFamily=Lucida Console;fontSize=15;" parent="1" vertex="1">
          <mxGeometry x="10" y="643" width="290" height="30" as="geometry" />
        </mxCell>
        <mxCell id="u3y3h4aaGRYCksMbSNTa-25" value="Gratis Attendace(time in &amp;amp; time out)" style="text;html=1;align=center;verticalAlign=middle;whiteSpace=wrap;rounded=0;fontFamily=Lucida Console;fontSize=14;" parent="1" vertex="1">
          <mxGeometry x="-10" y="868" width="327.5" height="30" as="geometry" />
        </mxCell>
        <mxCell id="u3y3h4aaGRYCksMbSNTa-26" value="warning of invalid scholar&amp;nbsp;" style="text;html=1;align=center;verticalAlign=middle;whiteSpace=wrap;rounded=0;fontFamily=Lucida Console;fontSize=15;" parent="1" vertex="1">
          <mxGeometry x="63.5" y="1074" width="250" height="30" as="geometry" />
        </mxCell>
        <mxCell id="u3y3h4aaGRYCksMbSNTa-27" value="name, email" style="text;html=1;align=center;verticalAlign=middle;whiteSpace=wrap;rounded=0;fontFamily=Lucida Console;fontSize=15;" parent="1" vertex="1">
          <mxGeometry x="18" y="826" width="290" height="30" as="geometry" />
        </mxCell>
        <mxCell id="u3y3h4aaGRYCksMbSNTa-28" value="new username, password" style="text;html=1;align=center;verticalAlign=middle;whiteSpace=wrap;rounded=0;fontFamily=Lucida Console;fontSize=15;" parent="1" vertex="1">
          <mxGeometry x="10" y="846" width="290" height="30" as="geometry" />
        </mxCell>
        <mxCell id="u3y3h4aaGRYCksMbSNTa-29" value="Account Credentials" style="text;html=1;align=center;verticalAlign=middle;whiteSpace=wrap;rounded=0;fontFamily=Lucida Console;fontSize=15;" parent="1" vertex="1">
          <mxGeometry x="67.5" y="895" width="201" height="30" as="geometry" />
        </mxCell>
        <mxCell id="u3y3h4aaGRYCksMbSNTa-30" value="List of Scholar in Church" style="text;html=1;align=center;verticalAlign=middle;whiteSpace=wrap;rounded=0;fontFamily=Lucida Console;fontSize=15;" parent="1" vertex="1">
          <mxGeometry x="51" y="917" width="235" height="30" as="geometry" />
        </mxCell>
        <mxCell id="u3y3h4aaGRYCksMbSNTa-31" value="QR Code of Church" style="text;html=1;align=center;verticalAlign=middle;whiteSpace=wrap;rounded=0;fontFamily=Lucida Console;fontSize=15;" parent="1" vertex="1">
          <mxGeometry x="76.5" y="936" width="162" height="30" as="geometry" />
        </mxCell>
        <mxCell id="u3y3h4aaGRYCksMbSNTa-32" value="Church name" style="text;html=1;align=center;verticalAlign=middle;whiteSpace=wrap;rounded=0;fontFamily=Lucida Console;fontSize=15;" parent="1" vertex="1">
          <mxGeometry x="115" y="979" width="130" height="30" as="geometry" />
        </mxCell>
        <mxCell id="u3y3h4aaGRYCksMbSNTa-33" value="name, email" style="text;html=1;align=center;verticalAlign=middle;whiteSpace=wrap;rounded=0;fontFamily=Lucida Console;fontSize=15;" parent="1" vertex="1">
          <mxGeometry x="116.5" y="997" width="125" height="30" as="geometry" />
        </mxCell>
        <mxCell id="u3y3h4aaGRYCksMbSNTa-34" value="OTP" style="text;html=1;align=center;verticalAlign=middle;whiteSpace=wrap;rounded=0;fontFamily=Lucida Console;fontSize=15;" parent="1" vertex="1">
          <mxGeometry x="248" y="208" width="60" height="30" as="geometry" />
        </mxCell>
        <mxCell id="u3y3h4aaGRYCksMbSNTa-35" value="OTP(email)" style="text;html=1;align=center;verticalAlign=middle;whiteSpace=wrap;rounded=0;fontFamily=Lucida Console;fontSize=15;" parent="1" vertex="1">
          <mxGeometry x="85" y="387" width="105" height="30" as="geometry" />
        </mxCell>
        <mxCell id="u3y3h4aaGRYCksMbSNTa-36" value="new username, password" style="text;html=1;align=center;verticalAlign=middle;whiteSpace=wrap;rounded=0;fontFamily=Lucida Console;fontSize=15;" parent="1" vertex="1">
          <mxGeometry x="151" y="87" width="290" height="30" as="geometry" />
        </mxCell>
        <mxCell id="u3y3h4aaGRYCksMbSNTa-37" value="new username, password" style="text;html=1;align=center;verticalAlign=middle;whiteSpace=wrap;rounded=0;fontFamily=Lucida Console;fontSize=15;" parent="1" vertex="1">
          <mxGeometry x="60.5" y="956" width="215" height="30" as="geometry" />
        </mxCell>
        <mxCell id="u3y3h4aaGRYCksMbSNTa-38" value="Account Credentials" style="text;html=1;align=center;verticalAlign=middle;whiteSpace=wrap;rounded=0;fontFamily=Lucida Console;fontSize=15;" parent="1" vertex="1">
          <mxGeometry x="18" y="767" width="290" height="30" as="geometry" />
        </mxCell>
        <mxCell id="u3y3h4aaGRYCksMbSNTa-39" value="Info in Scholar scanned" style="text;html=1;align=center;verticalAlign=middle;whiteSpace=wrap;rounded=0;fontFamily=Lucida Console;fontSize=15;" parent="1" vertex="1">
          <mxGeometry x="18" y="807" width="290" height="30" as="geometry" />
        </mxCell>
        <mxCell id="u3y3h4aaGRYCksMbSNTa-40" value="warning of invalid scholar&amp;nbsp;" style="text;html=1;align=center;verticalAlign=middle;whiteSpace=wrap;rounded=0;fontFamily=Lucida Console;fontSize=15;" parent="1" vertex="1">
          <mxGeometry x="43" y="787" width="250" height="30" as="geometry" />
        </mxCell>
        <mxCell id="u3y3h4aaGRYCksMbSNTa-41" value="Fellowship Attendance" style="text;html=1;align=center;verticalAlign=middle;whiteSpace=wrap;rounded=0;fontFamily=Lucida Console;fontSize=15;" parent="1" vertex="1">
          <mxGeometry x="77" y="1115" width="209" height="30" as="geometry" />
        </mxCell>
        <mxCell id="u3y3h4aaGRYCksMbSNTa-42" value="name, email" style="text;html=1;align=center;verticalAlign=middle;whiteSpace=wrap;rounded=0;fontFamily=Lucida Console;fontSize=15;" parent="1" vertex="1">
          <mxGeometry x="124" y="1195" width="110" height="30" as="geometry" />
        </mxCell>
        <mxCell id="u3y3h4aaGRYCksMbSNTa-43" value="new username, password" style="text;html=1;align=center;verticalAlign=middle;whiteSpace=wrap;rounded=0;fontFamily=Lucida Console;fontSize=15;" parent="1" vertex="1">
          <mxGeometry x="71.5" y="1136" width="220" height="30" as="geometry" />
        </mxCell>
        <mxCell id="u3y3h4aaGRYCksMbSNTa-46" value="List of Passed Applicant" style="text;html=1;align=center;verticalAlign=middle;whiteSpace=wrap;rounded=0;fontFamily=Lucida Console;fontSize=15;" parent="1" vertex="1">
          <mxGeometry x="-57.5" y="484" width="290" height="30" as="geometry" />
        </mxCell>
        <mxCell id="u3y3h4aaGRYCksMbSNTa-48" value="Reports" style="text;html=1;align=center;verticalAlign=middle;whiteSpace=wrap;rounded=0;fontFamily=Lucida Console;fontSize=15;" parent="1" vertex="1">
          <mxGeometry x="-38" y="407" width="290" height="30" as="geometry" />
        </mxCell>
        <mxCell id="u3y3h4aaGRYCksMbSNTa-50" value="Report" style="text;html=1;align=center;verticalAlign=middle;whiteSpace=wrap;rounded=0;fontFamily=Lucida Console;fontSize=15;" parent="1" vertex="1">
          <mxGeometry x="140" y="1014" width="75" height="30" as="geometry" />
        </mxCell>
        <mxCell id="u3y3h4aaGRYCksMbSNTa-51" value="Report" style="text;html=1;align=center;verticalAlign=middle;whiteSpace=wrap;rounded=0;fontFamily=Lucida Console;fontSize=15;" parent="1" vertex="1">
          <mxGeometry x="10" y="745" width="290" height="30" as="geometry" />
        </mxCell>
        <mxCell id="u3y3h4aaGRYCksMbSNTa-52" value="new username, password" style="text;html=1;align=center;verticalAlign=middle;whiteSpace=wrap;rounded=0;fontFamily=Lucida Console;fontSize=15;" parent="1" vertex="1">
          <mxGeometry x="245" y="1355" width="220" height="30" as="geometry" />
        </mxCell>
        <mxCell id="u3y3h4aaGRYCksMbSNTa-53" value="name, email" style="text;html=1;align=center;verticalAlign=middle;whiteSpace=wrap;rounded=0;fontFamily=Lucida Console;fontSize=15;" parent="1" vertex="1">
          <mxGeometry x="277.5" y="1316" width="150" height="30" as="geometry" />
        </mxCell>
        <mxCell id="u3y3h4aaGRYCksMbSNTa-54" value="Daily Report of monitored scholars" style="text;html=1;align=center;verticalAlign=middle;whiteSpace=wrap;rounded=0;fontFamily=Lucida Console;fontSize=15;" parent="1" vertex="1">
          <mxGeometry x="194" y="1377" width="310" height="30" as="geometry" />
        </mxCell>
        <mxCell id="u3y3h4aaGRYCksMbSNTa-55" value="Violation Report" style="text;html=1;align=center;verticalAlign=middle;whiteSpace=wrap;rounded=0;fontFamily=Lucida Console;fontSize=15;" parent="1" vertex="1">
          <mxGeometry x="268.5" y="1335" width="168" height="30" as="geometry" />
        </mxCell>
        <mxCell id="u3y3h4aaGRYCksMbSNTa-56" value="Account Credentials" style="text;html=1;align=center;verticalAlign=middle;whiteSpace=wrap;rounded=0;fontFamily=Lucida Console;fontSize=15;" parent="1" vertex="1">
          <mxGeometry x="226" y="1257" width="220" height="30" as="geometry" />
        </mxCell>
        <mxCell id="u3y3h4aaGRYCksMbSNTa-57" value="Info in Scholar scanned" style="text;html=1;align=center;verticalAlign=middle;whiteSpace=wrap;rounded=0;fontFamily=Lucida Console;fontSize=15;" parent="1" vertex="1">
          <mxGeometry x="228" y="1276" width="220" height="30" as="geometry" />
        </mxCell>
        <mxCell id="u3y3h4aaGRYCksMbSNTa-58" value="Gratis Attendace&lt;div&gt;(time in &amp;amp; time out)&lt;/div&gt;" style="text;html=1;align=center;verticalAlign=middle;whiteSpace=wrap;rounded=0;fontFamily=Lucida Console;fontSize=15;" parent="1" vertex="1">
          <mxGeometry x="852" y="857" width="190" height="30" as="geometry" />
        </mxCell>
        <mxCell id="u3y3h4aaGRYCksMbSNTa-59" value="new username, password" style="text;html=1;align=center;verticalAlign=middle;whiteSpace=wrap;rounded=0;fontFamily=Lucida Console;fontSize=15;" parent="1" vertex="1">
          <mxGeometry x="831" y="787" width="290" height="30" as="geometry" />
        </mxCell>
        <mxCell id="u3y3h4aaGRYCksMbSNTa-60" value="name, email" style="text;html=1;align=center;verticalAlign=middle;whiteSpace=wrap;rounded=0;fontFamily=Lucida Console;fontSize=15;" parent="1" vertex="1">
          <mxGeometry x="897" y="767" width="139" height="30" as="geometry" />
        </mxCell>
        <mxCell id="u3y3h4aaGRYCksMbSNTa-61" value="Report" style="text;html=1;align=center;verticalAlign=middle;whiteSpace=wrap;rounded=0;fontFamily=Lucida Console;fontSize=15;" parent="1" vertex="1">
          <mxGeometry x="916.5" y="723" width="100" height="30" as="geometry" />
        </mxCell>
        <mxCell id="u3y3h4aaGRYCksMbSNTa-62" value="Account Credentials" style="text;html=1;align=center;verticalAlign=middle;whiteSpace=wrap;rounded=0;fontFamily=Lucida Console;fontSize=15;" parent="1" vertex="1">
          <mxGeometry x="864" y="496" width="182" height="30" as="geometry" />
        </mxCell>
        <mxCell id="u3y3h4aaGRYCksMbSNTa-63" value="List of Applicants (with name, email, partial or Full &amp;amp; files)" style="text;html=1;align=center;verticalAlign=middle;whiteSpace=wrap;rounded=0;fontFamily=Lucida Console;fontSize=15;" parent="1" vertex="1">
          <mxGeometry x="841" y="463" width="289" height="30" as="geometry" />
        </mxCell>
        <mxCell id="u3y3h4aaGRYCksMbSNTa-64" value="List of Passed Applicants" style="text;html=1;align=center;verticalAlign=middle;whiteSpace=wrap;rounded=0;fontFamily=Lucida Console;fontSize=15;" parent="1" vertex="1">
          <mxGeometry x="831" y="807" width="290" height="30" as="geometry" />
        </mxCell>
        <mxCell id="u3y3h4aaGRYCksMbSNTa-65" value="name, email" style="text;html=1;align=center;verticalAlign=middle;whiteSpace=wrap;rounded=0;fontFamily=Lucida Console;fontSize=15;" parent="1" vertex="1">
          <mxGeometry x="801" y="362" width="120" height="30" as="geometry" />
        </mxCell>
        <mxCell id="u3y3h4aaGRYCksMbSNTa-66" value="soft copy requirements(files)" style="text;html=1;align=center;verticalAlign=middle;whiteSpace=wrap;rounded=0;fontFamily=Lucida Console;fontSize=15;" parent="1" vertex="1">
          <mxGeometry x="730" y="384" width="290" height="30" as="geometry" />
        </mxCell>
        <mxCell id="u3y3h4aaGRYCksMbSNTa-67" value="&lt;span class=&quot;_fadeIn_m1hgl_8&quot;&gt;Partial (&lt;/span&gt;&lt;span class=&quot;_fadeIn_m1hgl_8&quot;&gt;40%) &lt;/span&gt;&lt;span class=&quot;_fadeIn_m1hgl_8&quot;&gt;or &lt;/span&gt;&lt;span class=&quot;_fadeIn_m1hgl_8&quot;&gt;Full (&lt;/span&gt;&lt;span class=&quot;_fadeIn_m1hgl_8&quot;&gt;100%) Scho&lt;/span&gt;" style="text;html=1;align=center;verticalAlign=middle;whiteSpace=wrap;rounded=0;fontFamily=Lucida Console;fontSize=15;" parent="1" vertex="1">
          <mxGeometry x="716" y="407" width="320" height="30" as="geometry" />
        </mxCell>
        <mxCell id="u3y3h4aaGRYCksMbSNTa-69" value="rejection from validator(e.g.invalid docu)" style="text;html=1;align=center;verticalAlign=middle;whiteSpace=wrap;rounded=0;fontFamily=Lucida Console;fontSize=15;" parent="1" vertex="1">
          <mxGeometry x="622.25" y="25" width="389.5" height="30" as="geometry" />
        </mxCell>
        <mxCell id="u3y3h4aaGRYCksMbSNTa-70" value="rejection" style="text;html=1;align=center;verticalAlign=middle;whiteSpace=wrap;rounded=0;fontFamily=Lucida Console;fontSize=15;" parent="1" vertex="1">
          <mxGeometry x="906" y="745" width="130" height="30" as="geometry" />
        </mxCell>
        <mxCell id="u3y3h4aaGRYCksMbSNTa-71" value="Approval (from admin)" style="text;html=1;align=center;verticalAlign=middle;whiteSpace=wrap;rounded=0;fontFamily=Lucida Console;fontSize=15;" parent="1" vertex="1">
          <mxGeometry x="661" y="66" width="290" height="30" as="geometry" />
        </mxCell>
        <mxCell id="u3y3h4aaGRYCksMbSNTa-72" value="Account Credentials(as scho)" style="text;html=1;align=center;verticalAlign=middle;whiteSpace=wrap;rounded=0;fontFamily=Lucida Console;fontSize=15;" parent="1" vertex="1">
          <mxGeometry x="670" y="47" width="290" height="30" as="geometry" />
        </mxCell>
        <mxCell id="u3y3h4aaGRYCksMbSNTa-73" value="Approval (for application or exit)" style="text;html=1;align=center;verticalAlign=middle;whiteSpace=wrap;rounded=0;fontFamily=Lucida Console;fontSize=15;" parent="1" vertex="1">
          <mxGeometry x="106" y="47" width="330" height="30" as="geometry" />
        </mxCell>
        <mxCell id="u3y3h4aaGRYCksMbSNTa-74" value="&lt;span class=&quot;_fadeIn_m1hgl_8&quot;&gt;Scholarship &lt;/span&gt;&lt;span class=&quot;_fadeIn_m1hgl_8&quot;&gt;Slot &lt;/span&gt;&lt;span class=&quot;_fadeIn_m1hgl_8&quot;&gt;Limit&lt;/span&gt;" style="text;html=1;align=center;verticalAlign=middle;whiteSpace=wrap;rounded=0;fontFamily=Lucida Console;fontSize=15;" parent="1" vertex="1">
          <mxGeometry x="146" y="106" width="290" height="30" as="geometry" />
        </mxCell>
        <mxCell id="u3y3h4aaGRYCksMbSNTa-76" value="Total Gratis Hours Required" style="text;html=1;align=center;verticalAlign=middle;whiteSpace=wrap;rounded=0;fontFamily=Lucida Console;fontSize=15;" parent="1" vertex="1">
          <mxGeometry x="157" y="66" width="250" height="30" as="geometry" />
        </mxCell>
        <mxCell id="u3y3h4aaGRYCksMbSNTa-77" value="Fellowship Date" style="text;html=1;align=center;verticalAlign=middle;whiteSpace=wrap;rounded=0;fontFamily=Lucida Console;fontSize=15;" parent="1" vertex="1">
          <mxGeometry x="134" y="185" width="290" height="30" as="geometry" />
        </mxCell>
        <mxCell id="u3y3h4aaGRYCksMbSNTa-78" value="Fellowship Date" style="text;html=1;align=center;verticalAlign=middle;whiteSpace=wrap;rounded=0;fontFamily=Lucida Console;fontSize=15;" parent="1" vertex="1">
          <mxGeometry x="93.25" y="1095" width="173.5" height="30" as="geometry" />
        </mxCell>
        <mxCell id="u3y3h4aaGRYCksMbSNTa-79" value="Grand Fellowship Date" style="text;html=1;align=center;verticalAlign=middle;whiteSpace=wrap;rounded=0;fontFamily=Lucida Console;fontSize=15;" parent="1" vertex="1">
          <mxGeometry x="81.5" y="1155" width="200" height="30" as="geometry" />
        </mxCell>
        <mxCell id="u3y3h4aaGRYCksMbSNTa-80" value="QR code of Scho" style="text;html=1;align=center;verticalAlign=middle;whiteSpace=wrap;rounded=0;fontFamily=Lucida Console;fontSize=15;" parent="1" vertex="1">
          <mxGeometry x="599" y="1459" width="350" height="30" as="geometry" />
        </mxCell>
        <mxCell id="u3y3h4aaGRYCksMbSNTa-81" value="Total Fellowship,Gratis duty hours per scho" style="text;html=1;align=center;verticalAlign=middle;whiteSpace=wrap;rounded=0;fontFamily=Lucida Console;fontSize=15;" parent="1" vertex="1">
          <mxGeometry x="-125" y="585" width="400" height="30" as="geometry" />
        </mxCell>
        <mxCell id="u3y3h4aaGRYCksMbSNTa-84" value="Violation Hours" style="text;html=1;align=center;verticalAlign=middle;whiteSpace=wrap;rounded=0;fontFamily=Lucida Console;fontSize=15;" parent="1" vertex="1">
          <mxGeometry x="134" y="148" width="290" height="30" as="geometry" />
        </mxCell>
        <mxCell id="u3y3h4aaGRYCksMbSNTa-85" value="Exit request" style="text;html=1;align=center;verticalAlign=middle;whiteSpace=wrap;rounded=0;fontFamily=Lucida Console;fontSize=15;" parent="1" vertex="1">
          <mxGeometry x="801" y="956" width="176" height="30" as="geometry" />
        </mxCell>
        <mxCell id="u3y3h4aaGRYCksMbSNTa-86" value="Exit Request" style="text;html=1;align=center;verticalAlign=middle;whiteSpace=wrap;rounded=0;fontFamily=Lucida Console;fontSize=15;" parent="1" vertex="1">
          <mxGeometry x="-78" y="466" width="290" height="30" as="geometry" />
        </mxCell>
        <mxCell id="u3y3h4aaGRYCksMbSNTa-87" value="Caregroup Date" style="text;html=1;align=center;verticalAlign=middle;whiteSpace=wrap;rounded=0;fontFamily=Lucida Console;fontSize=15;" parent="1" vertex="1">
          <mxGeometry x="105.75" y="1175" width="143.5" height="30" as="geometry" />
        </mxCell>
        <mxCell id="u3y3h4aaGRYCksMbSNTa-88" value="&lt;span class=&quot;_fadeIn_m1hgl_8&quot;&gt;List &lt;/span&gt;&lt;span class=&quot;_fadeIn_m1hgl_8&quot;&gt;of &lt;/span&gt;&lt;span class=&quot;_fadeIn_m1hgl_8&quot;&gt;Scheduled &lt;/span&gt;&lt;span class=&quot;_fadeIn_m1hgl_8&quot;&gt;Care &lt;/span&gt;&lt;span class=&quot;_fadeIn_m1hgl_8&quot;&gt;Group &lt;/span&gt;&lt;span class=&quot;_fadeIn_m1hgl_8&quot;&gt;Dates&lt;/span&gt;" style="text;html=1;align=center;verticalAlign=middle;whiteSpace=wrap;rounded=0;fontFamily=Lucida Console;fontSize=15;" parent="1" vertex="1">
          <mxGeometry x="-113" y="567" width="325" height="30" as="geometry" />
        </mxCell>
        <mxCell id="u3y3h4aaGRYCksMbSNTa-89" value="Created Accounts(with corresponding roles)" style="text;html=1;align=center;verticalAlign=middle;whiteSpace=wrap;rounded=0;fontFamily=Lucida Console;fontSize=15;" parent="1" vertex="1">
          <mxGeometry x="49" y="-13" width="410" height="30" as="geometry" />
        </mxCell>
        <mxCell id="u3y3h4aaGRYCksMbSNTa-90" value="Application Form" style="text;html=1;align=center;verticalAlign=middle;whiteSpace=wrap;rounded=0;fontFamily=Lucida Console;fontSize=15;" parent="1" vertex="1">
          <mxGeometry x="151" y="125" width="290" height="30" as="geometry" />
        </mxCell>
        <mxCell id="u3y3h4aaGRYCksMbSNTa-91" value="needed requirements for renewal or application" style="text;html=1;align=center;verticalAlign=middle;whiteSpace=wrap;rounded=0;fontFamily=Lucida Console;fontSize=15;" parent="1" vertex="1">
          <mxGeometry x="40" y="7" width="430" height="30" as="geometry" />
        </mxCell>
        <mxCell id="u3y3h4aaGRYCksMbSNTa-92" value="List of Qr codes per Dept &amp;amp; church" style="text;html=1;align=center;verticalAlign=middle;whiteSpace=wrap;rounded=0;fontFamily=Lucida Console;fontSize=14;" parent="1" vertex="1">
          <mxGeometry x="-65" y="507.5" width="340" height="27" as="geometry" />
        </mxCell>
        <mxCell id="u3y3h4aaGRYCksMbSNTa-93" value="&lt;span class=&quot;_fadeIn_m1hgl_8&quot;&gt;All &lt;/span&gt;&lt;span class=&quot;_fadeIn_m1hgl_8&quot;&gt;Created &lt;/span&gt;&lt;span class=&quot;_fadeIn_m1hgl_8&quot;&gt;Accounts – &lt;/span&gt;&lt;span class=&quot;_fadeIn_m1hgl_8&quot;&gt;Sorted &lt;/span&gt;&lt;span class=&quot;_fadeIn_m1hgl_8&quot;&gt;by &lt;/span&gt;&lt;span class=&quot;_fadeIn_m1hgl_8&quot;&gt;Role&lt;/span&gt;" style="text;html=1;align=center;verticalAlign=middle;whiteSpace=wrap;rounded=0;fontFamily=Lucida Console;fontSize=15;" parent="1" vertex="1">
          <mxGeometry x="-85" y="545" width="345" height="30" as="geometry" />
        </mxCell>
        <mxCell id="u3y3h4aaGRYCksMbSNTa-94" value="Available Dept." style="text;html=1;align=center;verticalAlign=middle;whiteSpace=wrap;rounded=0;fontFamily=Lucida Console;fontSize=15;" parent="1" vertex="1">
          <mxGeometry x="-49" y="447" width="290" height="30" as="geometry" />
        </mxCell>
        <mxCell id="u3y3h4aaGRYCksMbSNTa-95" value="Date of Grand Fellowship per Church" style="text;html=1;align=center;verticalAlign=middle;whiteSpace=wrap;rounded=0;fontFamily=Lucida Console;fontSize=15;" parent="1" vertex="1">
          <mxGeometry x="-80" y="527" width="350" height="30" as="geometry" />
        </mxCell>
        <mxCell id="u3y3h4aaGRYCksMbSNTa-96" value="List of Monitored Accounts" style="text;html=1;align=center;verticalAlign=middle;whiteSpace=wrap;rounded=0;fontFamily=Lucida Console;fontSize=15;" parent="1" vertex="1">
          <mxGeometry x="226" y="1298" width="240" height="30" as="geometry" />
        </mxCell>
        <mxCell id="u3y3h4aaGRYCksMbSNTa-97" value="&lt;span class=&quot;_fadeIn_m1hgl_8&quot;&gt;List &lt;/span&gt;&lt;span class=&quot;_fadeIn_m1hgl_8&quot;&gt;of &lt;/span&gt;&lt;span class=&quot;_fadeIn_m1hgl_8&quot;&gt;Grantslip &lt;/span&gt;&lt;span class=&quot;_fadeIn_m1hgl_8&quot;&gt;Recipients&lt;/span&gt;" style="text;html=1;align=center;verticalAlign=middle;whiteSpace=wrap;rounded=0;fontFamily=Lucida Console;fontSize=15;" parent="1" vertex="1">
          <mxGeometry x="30" y="427" width="290" height="30" as="geometry" />
        </mxCell>
        <mxCell id="u3y3h4aaGRYCksMbSNTa-113" value="I" style="text;html=1;align=center;verticalAlign=middle;whiteSpace=wrap;rounded=0;fontFamily=Lucida Console;fontSize=15;" parent="1" vertex="1">
          <mxGeometry x="770" y="155" width="50" height="30" as="geometry" />
        </mxCell>
        <mxCell id="u3y3h4aaGRYCksMbSNTa-117" style="edgeStyle=orthogonalEdgeStyle;rounded=0;orthogonalLoop=1;jettySize=auto;html=1;" parent="1" edge="1">
          <mxGeometry relative="1" as="geometry">
            <mxPoint x="330" y="460" as="sourcePoint" />
            <mxPoint x="40" y="250" as="targetPoint" />
            <Array as="points">
              <mxPoint x="40" y="450" />
            </Array>
          </mxGeometry>
        </mxCell>
        <mxCell id="u3y3h4aaGRYCksMbSNTa-118" style="edgeStyle=orthogonalEdgeStyle;rounded=0;orthogonalLoop=1;jettySize=auto;html=1;entryX=0.923;entryY=1.03;entryDx=0;entryDy=0;entryPerimeter=0;" parent="1" source="UhX584XFw8gSICuTclrN-4" edge="1">
          <mxGeometry relative="1" as="geometry">
            <mxPoint x="320" y="500" as="sourcePoint" />
            <mxPoint x="21" y="250" as="targetPoint" />
            <Array as="points">
              <mxPoint x="21" y="470" />
            </Array>
          </mxGeometry>
        </mxCell>
        <mxCell id="u3y3h4aaGRYCksMbSNTa-119" style="edgeStyle=orthogonalEdgeStyle;rounded=0;orthogonalLoop=1;jettySize=auto;html=1;" parent="1" edge="1">
          <mxGeometry relative="1" as="geometry">
            <mxPoint x="310" y="520" as="sourcePoint" />
            <mxPoint x="-60" y="190" as="targetPoint" />
            <Array as="points">
              <mxPoint x="280" y="520" />
              <mxPoint x="280" y="570" />
              <mxPoint x="-90" y="570" />
              <mxPoint x="-90" y="190" />
            </Array>
          </mxGeometry>
        </mxCell>
        <mxCell id="u3y3h4aaGRYCksMbSNTa-121" style="edgeStyle=orthogonalEdgeStyle;rounded=0;orthogonalLoop=1;jettySize=auto;html=1;" parent="1" edge="1">
          <mxGeometry relative="1" as="geometry">
            <mxPoint x="310" y="530" as="sourcePoint" />
            <mxPoint x="-60" y="170" as="targetPoint" />
            <Array as="points">
              <mxPoint x="290" y="530" />
              <mxPoint x="290" y="590" />
              <mxPoint x="-110" y="590" />
              <mxPoint x="-110" y="170" />
            </Array>
          </mxGeometry>
        </mxCell>
        <mxCell id="u3y3h4aaGRYCksMbSNTa-122" style="edgeStyle=orthogonalEdgeStyle;rounded=0;orthogonalLoop=1;jettySize=auto;html=1;entryX=0.923;entryY=1.03;entryDx=0;entryDy=0;entryPerimeter=0;" parent="1" edge="1">
          <mxGeometry relative="1" as="geometry">
            <mxPoint x="310" y="490" as="sourcePoint" />
            <mxPoint x="-24" y="250" as="targetPoint" />
            <Array as="points">
              <mxPoint x="250" y="490" />
              <mxPoint x="250" y="510" />
              <mxPoint x="-24" y="510" />
            </Array>
          </mxGeometry>
        </mxCell>
        <mxCell id="u3y3h4aaGRYCksMbSNTa-123" style="edgeStyle=orthogonalEdgeStyle;rounded=0;orthogonalLoop=1;jettySize=auto;html=1;" parent="1" edge="1">
          <mxGeometry relative="1" as="geometry">
            <mxPoint x="310" y="540" as="sourcePoint" />
            <mxPoint x="-60" y="150" as="targetPoint" />
            <Array as="points">
              <mxPoint x="300" y="540" />
              <mxPoint x="300" y="610" />
              <mxPoint x="-130" y="610" />
              <mxPoint x="-130" y="150" />
            </Array>
          </mxGeometry>
        </mxCell>
        <mxCell id="u3y3h4aaGRYCksMbSNTa-124" style="edgeStyle=orthogonalEdgeStyle;rounded=0;orthogonalLoop=1;jettySize=auto;html=1;entryX=0.923;entryY=1.03;entryDx=0;entryDy=0;entryPerimeter=0;" parent="1" edge="1">
          <mxGeometry relative="1" as="geometry">
            <mxPoint x="310" y="480" as="sourcePoint" />
            <mxPoint y="250" as="targetPoint" />
            <Array as="points">
              <mxPoint x="240" y="480" />
              <mxPoint x="240" y="490" />
              <mxPoint y="490" />
            </Array>
          </mxGeometry>
        </mxCell>
        <mxCell id="u3y3h4aaGRYCksMbSNTa-125" style="edgeStyle=orthogonalEdgeStyle;rounded=0;orthogonalLoop=1;jettySize=auto;html=1;" parent="1" edge="1">
          <mxGeometry relative="1" as="geometry">
            <mxPoint x="310" y="510" as="sourcePoint" />
            <mxPoint x="-60" y="210" as="targetPoint" />
            <Array as="points">
              <mxPoint x="270" y="510" />
              <mxPoint x="270" y="550" />
              <mxPoint x="-70" y="550" />
              <mxPoint x="-70" y="210" />
            </Array>
          </mxGeometry>
        </mxCell>
        <mxCell id="u3y3h4aaGRYCksMbSNTa-126" style="edgeStyle=orthogonalEdgeStyle;rounded=0;orthogonalLoop=1;jettySize=auto;html=1;" parent="1" edge="1">
          <mxGeometry relative="1" as="geometry">
            <mxPoint x="350" y="460" as="sourcePoint" />
            <mxPoint x="80" y="250" as="targetPoint" />
            <Array as="points">
              <mxPoint x="80" y="410" />
            </Array>
          </mxGeometry>
        </mxCell>
        <mxCell id="u3y3h4aaGRYCksMbSNTa-127" style="edgeStyle=orthogonalEdgeStyle;rounded=0;orthogonalLoop=1;jettySize=auto;html=1;entryX=0.923;entryY=1.03;entryDx=0;entryDy=0;entryPerimeter=0;" parent="1" edge="1">
          <mxGeometry relative="1" as="geometry">
            <mxPoint x="310" y="500" as="sourcePoint" />
            <mxPoint x="-48" y="252.5" as="targetPoint" />
            <Array as="points">
              <mxPoint x="260" y="500" />
              <mxPoint x="260" y="530" />
              <mxPoint x="-48" y="530" />
            </Array>
          </mxGeometry>
        </mxCell>
        <mxCell id="u3y3h4aaGRYCksMbSNTa-128" style="edgeStyle=orthogonalEdgeStyle;rounded=0;orthogonalLoop=1;jettySize=auto;html=1;" parent="1" edge="1">
          <mxGeometry relative="1" as="geometry">
            <mxPoint x="340" y="460" as="sourcePoint" />
            <mxPoint x="60" y="250" as="targetPoint" />
            <Array as="points">
              <mxPoint x="340" y="430" />
              <mxPoint x="60" y="430" />
            </Array>
          </mxGeometry>
        </mxCell>
        <mxCell id="u3y3h4aaGRYCksMbSNTa-131" style="edgeStyle=orthogonalEdgeStyle;rounded=0;orthogonalLoop=1;jettySize=auto;html=1;" parent="1" edge="1">
          <mxGeometry relative="1" as="geometry">
            <mxPoint x="370" y="460" as="targetPoint" />
            <mxPoint x="180" y="210" as="sourcePoint" />
            <Array as="points">
              <mxPoint x="370" y="210" />
            </Array>
          </mxGeometry>
        </mxCell>
        <mxCell id="u3y3h4aaGRYCksMbSNTa-132" style="edgeStyle=orthogonalEdgeStyle;rounded=0;orthogonalLoop=1;jettySize=auto;html=1;" parent="1" edge="1">
          <mxGeometry relative="1" as="geometry">
            <mxPoint x="380" y="460" as="targetPoint" />
            <mxPoint x="180" y="190" as="sourcePoint" />
            <Array as="points">
              <mxPoint x="380" y="190" />
            </Array>
          </mxGeometry>
        </mxCell>
        <mxCell id="u3y3h4aaGRYCksMbSNTa-133" style="edgeStyle=orthogonalEdgeStyle;rounded=0;orthogonalLoop=1;jettySize=auto;html=1;" parent="1" edge="1">
          <mxGeometry relative="1" as="geometry">
            <mxPoint x="390" y="460" as="targetPoint" />
            <mxPoint x="180" y="169" as="sourcePoint" />
            <Array as="points">
              <mxPoint x="390" y="169" />
            </Array>
          </mxGeometry>
        </mxCell>
        <mxCell id="u3y3h4aaGRYCksMbSNTa-134" style="edgeStyle=orthogonalEdgeStyle;rounded=0;orthogonalLoop=1;jettySize=auto;html=1;" parent="1" edge="1">
          <mxGeometry relative="1" as="geometry">
            <mxPoint x="400" y="460" as="targetPoint" />
            <mxPoint x="180" y="148" as="sourcePoint" />
            <Array as="points">
              <mxPoint x="400" y="148" />
            </Array>
          </mxGeometry>
        </mxCell>
        <mxCell id="u3y3h4aaGRYCksMbSNTa-135" style="edgeStyle=orthogonalEdgeStyle;rounded=0;orthogonalLoop=1;jettySize=auto;html=1;" parent="1" edge="1">
          <mxGeometry relative="1" as="geometry">
            <mxPoint x="410" y="460" as="targetPoint" />
            <mxPoint x="180" y="129" as="sourcePoint" />
            <Array as="points">
              <mxPoint x="410" y="129" />
            </Array>
          </mxGeometry>
        </mxCell>
        <mxCell id="u3y3h4aaGRYCksMbSNTa-137" style="edgeStyle=orthogonalEdgeStyle;rounded=0;orthogonalLoop=1;jettySize=auto;html=1;" parent="1" edge="1">
          <mxGeometry relative="1" as="geometry">
            <mxPoint x="430" y="460" as="targetPoint" />
            <mxPoint x="80" y="110" as="sourcePoint" />
            <Array as="points">
              <mxPoint x="80" y="90" />
              <mxPoint x="430" y="90" />
            </Array>
          </mxGeometry>
        </mxCell>
        <mxCell id="u3y3h4aaGRYCksMbSNTa-138" style="edgeStyle=orthogonalEdgeStyle;rounded=0;orthogonalLoop=1;jettySize=auto;html=1;" parent="1" edge="1">
          <mxGeometry relative="1" as="geometry">
            <mxPoint x="440" y="460" as="targetPoint" />
            <mxPoint x="60" y="110" as="sourcePoint" />
            <Array as="points">
              <mxPoint x="60" y="110" />
              <mxPoint x="60" y="70" />
              <mxPoint x="440" y="70" />
            </Array>
          </mxGeometry>
        </mxCell>
        <mxCell id="u3y3h4aaGRYCksMbSNTa-139" style="edgeStyle=orthogonalEdgeStyle;rounded=0;orthogonalLoop=1;jettySize=auto;html=1;" parent="1" edge="1">
          <mxGeometry relative="1" as="geometry">
            <mxPoint x="450" y="460" as="targetPoint" />
            <mxPoint x="40" y="110" as="sourcePoint" />
            <Array as="points">
              <mxPoint x="40" y="50" />
              <mxPoint x="450" y="50" />
            </Array>
          </mxGeometry>
        </mxCell>
        <mxCell id="u3y3h4aaGRYCksMbSNTa-140" style="edgeStyle=orthogonalEdgeStyle;rounded=0;orthogonalLoop=1;jettySize=auto;html=1;" parent="1" edge="1">
          <mxGeometry relative="1" as="geometry">
            <mxPoint x="460" y="460" as="targetPoint" />
            <mxPoint x="20" y="110" as="sourcePoint" />
            <Array as="points">
              <mxPoint x="20" y="30" />
              <mxPoint x="460" y="30" />
            </Array>
          </mxGeometry>
        </mxCell>
        <mxCell id="u3y3h4aaGRYCksMbSNTa-83" value="Date of Renewal, Application" style="text;html=1;align=center;verticalAlign=middle;whiteSpace=wrap;rounded=0;fontFamily=Lucida Console;fontSize=15;" parent="1" vertex="1">
          <mxGeometry x="128" y="27" width="290" height="30" as="geometry" />
        </mxCell>
        <mxCell id="u3y3h4aaGRYCksMbSNTa-143" style="edgeStyle=orthogonalEdgeStyle;rounded=0;orthogonalLoop=1;jettySize=auto;html=1;" parent="1" edge="1">
          <mxGeometry relative="1" as="geometry">
            <mxPoint x="470" y="460" as="targetPoint" />
            <mxPoint y="110" as="sourcePoint" />
            <Array as="points">
              <mxPoint y="10" />
              <mxPoint x="470" y="10" />
            </Array>
          </mxGeometry>
        </mxCell>
        <mxCell id="u3y3h4aaGRYCksMbSNTa-147" style="edgeStyle=orthogonalEdgeStyle;rounded=0;orthogonalLoop=1;jettySize=auto;html=1;" parent="1" edge="1">
          <mxGeometry relative="1" as="geometry">
            <mxPoint y="650" as="targetPoint" />
            <mxPoint x="310" y="650" as="sourcePoint" />
            <Array as="points">
              <mxPoint x="310" y="650" />
            </Array>
          </mxGeometry>
        </mxCell>
        <mxCell id="u3y3h4aaGRYCksMbSNTa-148" style="edgeStyle=orthogonalEdgeStyle;rounded=0;orthogonalLoop=1;jettySize=auto;html=1;" parent="1" edge="1">
          <mxGeometry relative="1" as="geometry">
            <mxPoint y="670" as="targetPoint" />
            <mxPoint x="310" y="670" as="sourcePoint" />
            <Array as="points">
              <mxPoint x="310" y="670" />
            </Array>
          </mxGeometry>
        </mxCell>
        <mxCell id="u3y3h4aaGRYCksMbSNTa-149" style="edgeStyle=orthogonalEdgeStyle;rounded=0;orthogonalLoop=1;jettySize=auto;html=1;" parent="1" edge="1">
          <mxGeometry relative="1" as="geometry">
            <mxPoint x="310" y="690" as="targetPoint" />
            <mxPoint y="690" as="sourcePoint" />
            <Array as="points">
              <mxPoint x="160" y="690" />
              <mxPoint x="160" y="690" />
            </Array>
          </mxGeometry>
        </mxCell>
        <mxCell id="u3y3h4aaGRYCksMbSNTa-150" style="edgeStyle=orthogonalEdgeStyle;rounded=0;orthogonalLoop=1;jettySize=auto;html=1;" parent="1" edge="1">
          <mxGeometry relative="1" as="geometry">
            <mxPoint x="310" y="710" as="targetPoint" />
            <mxPoint y="710" as="sourcePoint" />
            <Array as="points">
              <mxPoint x="160" y="709.3" />
              <mxPoint x="160" y="709.3" />
            </Array>
          </mxGeometry>
        </mxCell>
        <mxCell id="u3y3h4aaGRYCksMbSNTa-151" style="edgeStyle=orthogonalEdgeStyle;rounded=0;orthogonalLoop=1;jettySize=auto;html=1;" parent="1" edge="1">
          <mxGeometry relative="1" as="geometry">
            <mxPoint x="310" y="730" as="targetPoint" />
            <mxPoint y="730" as="sourcePoint" />
            <Array as="points">
              <mxPoint x="80" y="730" />
              <mxPoint x="80" y="730" />
            </Array>
          </mxGeometry>
        </mxCell>
        <mxCell id="u3y3h4aaGRYCksMbSNTa-152" style="edgeStyle=orthogonalEdgeStyle;rounded=0;orthogonalLoop=1;jettySize=auto;html=1;" parent="1" edge="1">
          <mxGeometry relative="1" as="geometry">
            <mxPoint x="310" y="749.8" as="targetPoint" />
            <mxPoint y="749.8" as="sourcePoint" />
            <Array as="points">
              <mxPoint x="160" y="749.8" />
              <mxPoint x="160" y="749.8" />
            </Array>
          </mxGeometry>
        </mxCell>
        <mxCell id="u3y3h4aaGRYCksMbSNTa-153" style="edgeStyle=orthogonalEdgeStyle;rounded=0;orthogonalLoop=1;jettySize=auto;html=1;" parent="1" edge="1">
          <mxGeometry relative="1" as="geometry">
            <mxPoint x="310" y="770" as="targetPoint" />
            <mxPoint y="770" as="sourcePoint" />
            <Array as="points">
              <mxPoint x="160" y="770" />
              <mxPoint x="160" y="770" />
            </Array>
          </mxGeometry>
        </mxCell>
        <mxCell id="u3y3h4aaGRYCksMbSNTa-171" style="edgeStyle=orthogonalEdgeStyle;rounded=0;orthogonalLoop=1;jettySize=auto;html=1;" parent="1" edge="1">
          <mxGeometry relative="1" as="geometry">
            <mxPoint y="810" as="targetPoint" />
            <mxPoint x="310" y="810" as="sourcePoint" />
          </mxGeometry>
        </mxCell>
        <mxCell id="u3y3h4aaGRYCksMbSNTa-172" style="edgeStyle=orthogonalEdgeStyle;rounded=0;orthogonalLoop=1;jettySize=auto;html=1;" parent="1" edge="1">
          <mxGeometry relative="1" as="geometry">
            <mxPoint y="830" as="targetPoint" />
            <mxPoint x="310" y="830" as="sourcePoint" />
          </mxGeometry>
        </mxCell>
        <mxCell id="u3y3h4aaGRYCksMbSNTa-173" style="edgeStyle=orthogonalEdgeStyle;rounded=0;orthogonalLoop=1;jettySize=auto;html=1;" parent="1" edge="1">
          <mxGeometry relative="1" as="geometry">
            <mxPoint x="310" y="850" as="targetPoint" />
            <mxPoint x="10" y="850" as="sourcePoint" />
          </mxGeometry>
        </mxCell>
        <mxCell id="u3y3h4aaGRYCksMbSNTa-174" style="edgeStyle=orthogonalEdgeStyle;rounded=0;orthogonalLoop=1;jettySize=auto;html=1;" parent="1" edge="1">
          <mxGeometry relative="1" as="geometry">
            <mxPoint x="310" y="870" as="targetPoint" />
            <mxPoint x="10" y="870" as="sourcePoint" />
          </mxGeometry>
        </mxCell>
        <mxCell id="u3y3h4aaGRYCksMbSNTa-175" style="edgeStyle=orthogonalEdgeStyle;rounded=0;orthogonalLoop=1;jettySize=auto;html=1;" parent="1" edge="1">
          <mxGeometry relative="1" as="geometry">
            <mxPoint x="310" y="890" as="targetPoint" />
            <mxPoint x="10" y="890" as="sourcePoint" />
          </mxGeometry>
        </mxCell>
        <mxCell id="WDX3vNqjva9tqvP2y725-1" style="edgeStyle=orthogonalEdgeStyle;rounded=0;orthogonalLoop=1;jettySize=auto;html=1;" edge="1" parent="1">
          <mxGeometry relative="1" as="geometry">
            <mxPoint x="3" y="920" as="targetPoint" />
            <mxPoint x="313" y="920" as="sourcePoint" />
          </mxGeometry>
        </mxCell>
        <mxCell id="WDX3vNqjva9tqvP2y725-2" style="edgeStyle=orthogonalEdgeStyle;rounded=0;orthogonalLoop=1;jettySize=auto;html=1;" edge="1" parent="1">
          <mxGeometry relative="1" as="geometry">
            <mxPoint x="3" y="940" as="targetPoint" />
            <mxPoint x="320" y="930" as="sourcePoint" />
            <Array as="points">
              <mxPoint x="290" y="930" />
              <mxPoint x="290" y="940" />
            </Array>
          </mxGeometry>
        </mxCell>
        <mxCell id="WDX3vNqjva9tqvP2y725-3" style="edgeStyle=orthogonalEdgeStyle;rounded=0;orthogonalLoop=1;jettySize=auto;html=1;" edge="1" parent="1">
          <mxGeometry relative="1" as="geometry">
            <mxPoint x="3" y="960" as="targetPoint" />
            <mxPoint x="320" y="940" as="sourcePoint" />
            <Array as="points">
              <mxPoint x="300" y="940" />
              <mxPoint x="300" y="960" />
            </Array>
          </mxGeometry>
        </mxCell>
        <mxCell id="WDX3vNqjva9tqvP2y725-5" style="edgeStyle=orthogonalEdgeStyle;rounded=0;orthogonalLoop=1;jettySize=auto;html=1;" edge="1" parent="1">
          <mxGeometry relative="1" as="geometry">
            <mxPoint x="340" y="960" as="targetPoint" />
            <mxPoint x="7.5" y="979.76" as="sourcePoint" />
          </mxGeometry>
        </mxCell>
        <mxCell id="WDX3vNqjva9tqvP2y725-6" style="edgeStyle=orthogonalEdgeStyle;rounded=0;orthogonalLoop=1;jettySize=auto;html=1;" edge="1" parent="1">
          <mxGeometry relative="1" as="geometry">
            <mxPoint x="350" y="960" as="targetPoint" />
            <mxPoint x="8.5" y="999.76" as="sourcePoint" />
          </mxGeometry>
        </mxCell>
        <mxCell id="WDX3vNqjva9tqvP2y725-7" style="edgeStyle=orthogonalEdgeStyle;rounded=0;orthogonalLoop=1;jettySize=auto;html=1;" edge="1" parent="1">
          <mxGeometry relative="1" as="geometry">
            <mxPoint x="360" y="960" as="targetPoint" />
            <mxPoint x="10" y="1020" as="sourcePoint" />
            <Array as="points">
              <mxPoint x="360" y="1020" />
            </Array>
          </mxGeometry>
        </mxCell>
        <mxCell id="WDX3vNqjva9tqvP2y725-8" style="edgeStyle=orthogonalEdgeStyle;rounded=0;orthogonalLoop=1;jettySize=auto;html=1;" edge="1" parent="1">
          <mxGeometry relative="1" as="geometry">
            <mxPoint x="370" y="960" as="targetPoint" />
            <mxPoint x="10" y="1040" as="sourcePoint" />
            <Array as="points">
              <mxPoint x="370" y="1040" />
            </Array>
          </mxGeometry>
        </mxCell>
        <mxCell id="WDX3vNqjva9tqvP2y725-10" style="edgeStyle=orthogonalEdgeStyle;rounded=0;orthogonalLoop=1;jettySize=auto;html=1;" edge="1" parent="1">
          <mxGeometry relative="1" as="geometry">
            <mxPoint x="10" y="1060" as="targetPoint" />
            <mxPoint x="380" y="960" as="sourcePoint" />
            <Array as="points">
              <mxPoint x="380" y="1060" />
            </Array>
          </mxGeometry>
        </mxCell>
        <mxCell id="WDX3vNqjva9tqvP2y725-11" style="edgeStyle=orthogonalEdgeStyle;rounded=0;orthogonalLoop=1;jettySize=auto;html=1;" edge="1" parent="1">
          <mxGeometry relative="1" as="geometry">
            <mxPoint x="10" y="1079" as="targetPoint" />
            <mxPoint x="390" y="960" as="sourcePoint" />
            <Array as="points">
              <mxPoint x="390" y="1079" />
            </Array>
          </mxGeometry>
        </mxCell>
        <mxCell id="WDX3vNqjva9tqvP2y725-12" style="edgeStyle=orthogonalEdgeStyle;rounded=0;orthogonalLoop=1;jettySize=auto;html=1;" edge="1" parent="1">
          <mxGeometry relative="1" as="geometry">
            <mxPoint x="10" y="1098" as="targetPoint" />
            <mxPoint x="400" y="960" as="sourcePoint" />
            <Array as="points">
              <mxPoint x="400" y="1098" />
            </Array>
          </mxGeometry>
        </mxCell>
        <mxCell id="WDX3vNqjva9tqvP2y725-13" style="edgeStyle=orthogonalEdgeStyle;rounded=0;orthogonalLoop=1;jettySize=auto;html=1;" edge="1" parent="1">
          <mxGeometry relative="1" as="geometry">
            <mxPoint x="10" y="1120" as="targetPoint" />
            <mxPoint x="410" y="960" as="sourcePoint" />
            <Array as="points">
              <mxPoint x="410" y="1120" />
            </Array>
          </mxGeometry>
        </mxCell>
        <mxCell id="WDX3vNqjva9tqvP2y725-14" style="edgeStyle=orthogonalEdgeStyle;rounded=0;orthogonalLoop=1;jettySize=auto;html=1;" edge="1" parent="1">
          <mxGeometry relative="1" as="geometry">
            <mxPoint x="420" y="960" as="targetPoint" />
            <mxPoint x="10" y="1139" as="sourcePoint" />
            <Array as="points">
              <mxPoint x="420" y="1139" />
            </Array>
          </mxGeometry>
        </mxCell>
        <mxCell id="WDX3vNqjva9tqvP2y725-15" style="edgeStyle=orthogonalEdgeStyle;rounded=0;orthogonalLoop=1;jettySize=auto;html=1;" edge="1" parent="1">
          <mxGeometry relative="1" as="geometry">
            <mxPoint x="430" y="960" as="targetPoint" />
            <mxPoint x="10" y="1160" as="sourcePoint" />
            <Array as="points">
              <mxPoint x="430" y="1160" />
            </Array>
          </mxGeometry>
        </mxCell>
        <mxCell id="WDX3vNqjva9tqvP2y725-16" style="edgeStyle=orthogonalEdgeStyle;rounded=0;orthogonalLoop=1;jettySize=auto;html=1;exitX=0.544;exitY=1.011;exitDx=0;exitDy=0;exitPerimeter=0;" edge="1" parent="1" source="u3y3h4aaGRYCksMbSNTa-5">
          <mxGeometry relative="1" as="geometry">
            <mxPoint x="440" y="960" as="targetPoint" />
            <mxPoint x="-100" y="1180" as="sourcePoint" />
            <Array as="points">
              <mxPoint x="-100" y="1180" />
              <mxPoint x="440" y="1180" />
            </Array>
          </mxGeometry>
        </mxCell>
        <mxCell id="WDX3vNqjva9tqvP2y725-17" style="edgeStyle=orthogonalEdgeStyle;rounded=0;orthogonalLoop=1;jettySize=auto;html=1;" edge="1" parent="1">
          <mxGeometry relative="1" as="geometry">
            <mxPoint x="450" y="960" as="targetPoint" />
            <mxPoint x="-120" y="1180" as="sourcePoint" />
            <Array as="points">
              <mxPoint x="-120" y="1200" />
              <mxPoint x="450" y="1200" />
            </Array>
          </mxGeometry>
        </mxCell>
        <mxCell id="WDX3vNqjva9tqvP2y725-18" style="edgeStyle=orthogonalEdgeStyle;rounded=0;orthogonalLoop=1;jettySize=auto;html=1;" edge="1" parent="1">
          <mxGeometry relative="1" as="geometry">
            <mxPoint x="460" y="960" as="targetPoint" />
            <mxPoint x="-140" y="1180" as="sourcePoint" />
            <Array as="points">
              <mxPoint x="-140" y="1220" />
              <mxPoint x="460" y="1220" />
            </Array>
          </mxGeometry>
        </mxCell>
        <mxCell id="WDX3vNqjva9tqvP2y725-19" style="edgeStyle=orthogonalEdgeStyle;rounded=0;orthogonalLoop=1;jettySize=auto;html=1;" edge="1" parent="1">
          <mxGeometry relative="1" as="geometry">
            <mxPoint x="190" y="1280" as="targetPoint" />
            <mxPoint x="480" y="960" as="sourcePoint" />
            <Array as="points">
              <mxPoint x="480" y="1280" />
            </Array>
          </mxGeometry>
        </mxCell>
        <mxCell id="WDX3vNqjva9tqvP2y725-20" style="edgeStyle=orthogonalEdgeStyle;rounded=0;orthogonalLoop=1;jettySize=auto;html=1;" edge="1" parent="1">
          <mxGeometry relative="1" as="geometry">
            <mxPoint x="190" y="1299" as="targetPoint" />
            <mxPoint x="490" y="960" as="sourcePoint" />
            <Array as="points">
              <mxPoint x="490" y="1299" />
            </Array>
          </mxGeometry>
        </mxCell>
        <mxCell id="WDX3vNqjva9tqvP2y725-21" style="edgeStyle=orthogonalEdgeStyle;rounded=0;orthogonalLoop=1;jettySize=auto;html=1;" edge="1" parent="1">
          <mxGeometry relative="1" as="geometry">
            <mxPoint x="190" y="1320" as="targetPoint" />
            <mxPoint x="500" y="960" as="sourcePoint" />
            <Array as="points">
              <mxPoint x="500" y="1320" />
            </Array>
          </mxGeometry>
        </mxCell>
        <mxCell id="WDX3vNqjva9tqvP2y725-22" style="edgeStyle=orthogonalEdgeStyle;rounded=0;orthogonalLoop=1;jettySize=auto;html=1;" edge="1" parent="1">
          <mxGeometry relative="1" as="geometry">
            <mxPoint x="510" y="960" as="targetPoint" />
            <mxPoint x="190" y="1340" as="sourcePoint" />
            <Array as="points">
              <mxPoint x="510" y="1340" />
            </Array>
          </mxGeometry>
        </mxCell>
        <mxCell id="WDX3vNqjva9tqvP2y725-23" style="edgeStyle=orthogonalEdgeStyle;rounded=0;orthogonalLoop=1;jettySize=auto;html=1;" edge="1" parent="1">
          <mxGeometry relative="1" as="geometry">
            <mxPoint x="520" y="960" as="targetPoint" />
            <mxPoint x="190" y="1360" as="sourcePoint" />
            <Array as="points">
              <mxPoint x="520" y="1360" />
            </Array>
          </mxGeometry>
        </mxCell>
        <mxCell id="WDX3vNqjva9tqvP2y725-24" style="edgeStyle=orthogonalEdgeStyle;rounded=0;orthogonalLoop=1;jettySize=auto;html=1;" edge="1" parent="1">
          <mxGeometry relative="1" as="geometry">
            <mxPoint x="530" y="960" as="targetPoint" />
            <mxPoint x="190" y="1380" as="sourcePoint" />
            <Array as="points">
              <mxPoint x="530" y="1380" />
            </Array>
          </mxGeometry>
        </mxCell>
        <mxCell id="WDX3vNqjva9tqvP2y725-25" style="edgeStyle=orthogonalEdgeStyle;rounded=0;orthogonalLoop=1;jettySize=auto;html=1;" edge="1" parent="1">
          <mxGeometry relative="1" as="geometry">
            <mxPoint x="540" y="960" as="targetPoint" />
            <mxPoint x="80" y="1390" as="sourcePoint" />
            <Array as="points">
              <mxPoint x="540" y="1400" />
            </Array>
          </mxGeometry>
        </mxCell>
        <mxCell id="WDX3vNqjva9tqvP2y725-28" style="edgeStyle=orthogonalEdgeStyle;rounded=0;orthogonalLoop=1;jettySize=auto;html=1;" edge="1" parent="1">
          <mxGeometry relative="1" as="geometry">
            <mxPoint x="960" y="110" as="targetPoint" />
            <mxPoint x="640" y="460" as="sourcePoint" />
            <Array as="points">
              <mxPoint x="640" y="70" />
              <mxPoint x="960" y="70" />
            </Array>
          </mxGeometry>
        </mxCell>
        <mxCell id="WDX3vNqjva9tqvP2y725-29" style="edgeStyle=orthogonalEdgeStyle;rounded=0;orthogonalLoop=1;jettySize=auto;html=1;" edge="1" parent="1">
          <mxGeometry relative="1" as="geometry">
            <mxPoint x="1000" y="110" as="targetPoint" />
            <mxPoint x="630" y="460" as="sourcePoint" />
            <Array as="points">
              <mxPoint x="630" y="50" />
              <mxPoint x="1000" y="50" />
            </Array>
          </mxGeometry>
        </mxCell>
        <mxCell id="WDX3vNqjva9tqvP2y725-31" style="edgeStyle=orthogonalEdgeStyle;rounded=0;orthogonalLoop=1;jettySize=auto;html=1;" edge="1" parent="1">
          <mxGeometry relative="1" as="geometry">
            <mxPoint x="720" y="460" as="targetPoint" />
            <mxPoint x="1010" y="250" as="sourcePoint" />
            <Array as="points">
              <mxPoint x="1010" y="409" />
              <mxPoint x="720" y="409" />
            </Array>
          </mxGeometry>
        </mxCell>
        <mxCell id="WDX3vNqjva9tqvP2y725-32" style="edgeStyle=orthogonalEdgeStyle;rounded=0;orthogonalLoop=1;jettySize=auto;html=1;" edge="1" parent="1">
          <mxGeometry relative="1" as="geometry">
            <mxPoint x="710" y="460" as="targetPoint" />
            <mxPoint x="990" y="250" as="sourcePoint" />
            <Array as="points">
              <mxPoint x="990" y="388" />
              <mxPoint x="710" y="388" />
            </Array>
          </mxGeometry>
        </mxCell>
        <mxCell id="WDX3vNqjva9tqvP2y725-40" style="edgeStyle=orthogonalEdgeStyle;rounded=0;orthogonalLoop=1;jettySize=auto;html=1;" edge="1" parent="1">
          <mxGeometry relative="1" as="geometry">
            <mxPoint x="1050" y="570" as="targetPoint" />
            <mxPoint x="839" y="520" as="sourcePoint" />
            <Array as="points">
              <mxPoint x="1050" y="520" />
              <mxPoint x="1050" y="570" />
            </Array>
          </mxGeometry>
        </mxCell>
        <mxCell id="WDX3vNqjva9tqvP2y725-33" style="edgeStyle=orthogonalEdgeStyle;rounded=0;orthogonalLoop=1;jettySize=auto;html=1;" edge="1" parent="1">
          <mxGeometry relative="1" as="geometry">
            <mxPoint x="840" y="750" as="targetPoint" />
            <mxPoint x="1030" y="710" as="sourcePoint" />
            <Array as="points">
              <mxPoint x="1030" y="750" />
            </Array>
          </mxGeometry>
        </mxCell>
        <mxCell id="WDX3vNqjva9tqvP2y725-34" style="edgeStyle=orthogonalEdgeStyle;rounded=0;orthogonalLoop=1;jettySize=auto;html=1;" edge="1" parent="1">
          <mxGeometry relative="1" as="geometry">
            <mxPoint x="840" y="770" as="targetPoint" />
            <mxPoint x="1050" y="710" as="sourcePoint" />
            <Array as="points">
              <mxPoint x="1050" y="770" />
            </Array>
          </mxGeometry>
        </mxCell>
        <mxCell id="WDX3vNqjva9tqvP2y725-35" style="edgeStyle=orthogonalEdgeStyle;rounded=0;orthogonalLoop=1;jettySize=auto;html=1;" edge="1" parent="1">
          <mxGeometry relative="1" as="geometry">
            <mxPoint x="840" y="790" as="targetPoint" />
            <mxPoint x="1070" y="710" as="sourcePoint" />
            <Array as="points">
              <mxPoint x="1070" y="790" />
            </Array>
          </mxGeometry>
        </mxCell>
        <mxCell id="WDX3vNqjva9tqvP2y725-36" style="edgeStyle=orthogonalEdgeStyle;rounded=0;orthogonalLoop=1;jettySize=auto;html=1;" edge="1" parent="1">
          <mxGeometry relative="1" as="geometry">
            <mxPoint x="840" y="810" as="targetPoint" />
            <mxPoint x="1090" y="710" as="sourcePoint" />
            <Array as="points">
              <mxPoint x="1090" y="810" />
            </Array>
          </mxGeometry>
        </mxCell>
        <mxCell id="WDX3vNqjva9tqvP2y725-37" style="edgeStyle=orthogonalEdgeStyle;rounded=0;orthogonalLoop=1;jettySize=auto;html=1;" edge="1" parent="1">
          <mxGeometry relative="1" as="geometry">
            <mxPoint x="840" y="830" as="targetPoint" />
            <mxPoint x="1110" y="710" as="sourcePoint" />
            <Array as="points">
              <mxPoint x="1110" y="830" />
            </Array>
          </mxGeometry>
        </mxCell>
        <mxCell id="WDX3vNqjva9tqvP2y725-42" style="edgeStyle=orthogonalEdgeStyle;rounded=0;orthogonalLoop=1;jettySize=auto;html=1;" edge="1" parent="1">
          <mxGeometry relative="1" as="geometry">
            <mxPoint x="1020" y="1400" as="targetPoint" />
            <mxPoint x="560" y="960" as="sourcePoint" />
            <Array as="points">
              <mxPoint x="560" y="1640" />
              <mxPoint x="1020" y="1640" />
            </Array>
          </mxGeometry>
        </mxCell>
        <mxCell id="WDX3vNqjva9tqvP2y725-43" style="edgeStyle=orthogonalEdgeStyle;rounded=0;orthogonalLoop=1;jettySize=auto;html=1;" edge="1" parent="1">
          <mxGeometry relative="1" as="geometry">
            <mxPoint x="1000" y="1400" as="targetPoint" />
            <mxPoint x="570" y="960" as="sourcePoint" />
            <Array as="points">
              <mxPoint x="570" y="1620" />
              <mxPoint x="1000" y="1620" />
            </Array>
          </mxGeometry>
        </mxCell>
        <mxCell id="WDX3vNqjva9tqvP2y725-44" style="edgeStyle=orthogonalEdgeStyle;rounded=0;orthogonalLoop=1;jettySize=auto;html=1;" edge="1" parent="1">
          <mxGeometry relative="1" as="geometry">
            <mxPoint x="980" y="1400" as="targetPoint" />
            <mxPoint x="580" y="960" as="sourcePoint" />
            <Array as="points">
              <mxPoint x="580" y="1600" />
              <mxPoint x="980" y="1600" />
            </Array>
          </mxGeometry>
        </mxCell>
        <mxCell id="WDX3vNqjva9tqvP2y725-45" style="edgeStyle=orthogonalEdgeStyle;rounded=0;orthogonalLoop=1;jettySize=auto;html=1;" edge="1" parent="1">
          <mxGeometry relative="1" as="geometry">
            <mxPoint x="960" y="1400" as="targetPoint" />
            <mxPoint x="590" y="960" as="sourcePoint" />
            <Array as="points">
              <mxPoint x="590" y="1580" />
              <mxPoint x="960" y="1580" />
            </Array>
          </mxGeometry>
        </mxCell>
        <mxCell id="WDX3vNqjva9tqvP2y725-46" style="edgeStyle=orthogonalEdgeStyle;rounded=0;orthogonalLoop=1;jettySize=auto;html=1;" edge="1" parent="1">
          <mxGeometry relative="1" as="geometry">
            <mxPoint x="940" y="1400" as="targetPoint" />
            <mxPoint x="600" y="960" as="sourcePoint" />
            <Array as="points">
              <mxPoint x="600" y="1560" />
              <mxPoint x="940" y="1560" />
            </Array>
          </mxGeometry>
        </mxCell>
        <mxCell id="WDX3vNqjva9tqvP2y725-47" style="edgeStyle=orthogonalEdgeStyle;rounded=0;orthogonalLoop=1;jettySize=auto;html=1;" edge="1" parent="1">
          <mxGeometry relative="1" as="geometry">
            <mxPoint x="920" y="1400" as="targetPoint" />
            <mxPoint x="610" y="960" as="sourcePoint" />
            <Array as="points">
              <mxPoint x="610" y="1540" />
              <mxPoint x="920" y="1540" />
            </Array>
          </mxGeometry>
        </mxCell>
        <mxCell id="WDX3vNqjva9tqvP2y725-48" style="edgeStyle=orthogonalEdgeStyle;rounded=0;orthogonalLoop=1;jettySize=auto;html=1;" edge="1" parent="1">
          <mxGeometry relative="1" as="geometry">
            <mxPoint x="900" y="1400" as="targetPoint" />
            <mxPoint x="620" y="960" as="sourcePoint" />
            <Array as="points">
              <mxPoint x="620" y="1520" />
              <mxPoint x="900" y="1520" />
            </Array>
          </mxGeometry>
        </mxCell>
        <mxCell id="WDX3vNqjva9tqvP2y725-49" style="edgeStyle=orthogonalEdgeStyle;rounded=0;orthogonalLoop=1;jettySize=auto;html=1;" edge="1" parent="1">
          <mxGeometry relative="1" as="geometry">
            <mxPoint x="880" y="1400" as="targetPoint" />
            <mxPoint x="630" y="960" as="sourcePoint" />
            <Array as="points">
              <mxPoint x="630" y="1500" />
              <mxPoint x="880" y="1500" />
            </Array>
          </mxGeometry>
        </mxCell>
        <mxCell id="WDX3vNqjva9tqvP2y725-50" style="edgeStyle=orthogonalEdgeStyle;rounded=0;orthogonalLoop=1;jettySize=auto;html=1;" edge="1" parent="1">
          <mxGeometry relative="1" as="geometry">
            <mxPoint x="860" y="1400" as="targetPoint" />
            <mxPoint x="640" y="960" as="sourcePoint" />
            <Array as="points">
              <mxPoint x="640" y="1480" />
              <mxPoint x="860" y="1480" />
            </Array>
          </mxGeometry>
        </mxCell>
        <mxCell id="WDX3vNqjva9tqvP2y725-52" style="edgeStyle=orthogonalEdgeStyle;rounded=0;orthogonalLoop=1;jettySize=auto;html=1;" edge="1" parent="1">
          <mxGeometry relative="1" as="geometry">
            <mxPoint x="840" y="1400" as="targetPoint" />
            <mxPoint x="650" y="960" as="sourcePoint" />
            <Array as="points">
              <mxPoint x="650" y="1460" />
              <mxPoint x="840" y="1460" />
            </Array>
          </mxGeometry>
        </mxCell>
        <mxCell id="WDX3vNqjva9tqvP2y725-54" style="edgeStyle=orthogonalEdgeStyle;rounded=0;orthogonalLoop=1;jettySize=auto;html=1;" edge="1" parent="1">
          <mxGeometry relative="1" as="geometry">
            <mxPoint x="800" y="960" as="targetPoint" />
            <mxPoint x="980" y="1260" as="sourcePoint" />
            <Array as="points">
              <mxPoint x="980" y="1260" />
              <mxPoint x="980" y="980" />
              <mxPoint x="800" y="980" />
            </Array>
          </mxGeometry>
        </mxCell>
        <mxCell id="WDX3vNqjva9tqvP2y725-55" style="edgeStyle=orthogonalEdgeStyle;rounded=0;orthogonalLoop=1;jettySize=auto;html=1;" edge="1" parent="1">
          <mxGeometry relative="1" as="geometry">
            <mxPoint x="740" y="960" as="targetPoint" />
            <mxPoint x="920" y="1260" as="sourcePoint" />
            <Array as="points">
              <mxPoint x="920" y="1040" />
              <mxPoint x="740" y="1040" />
            </Array>
          </mxGeometry>
        </mxCell>
        <mxCell id="WDX3vNqjva9tqvP2y725-56" style="edgeStyle=orthogonalEdgeStyle;rounded=0;orthogonalLoop=1;jettySize=auto;html=1;entryX=1;entryY=1;entryDx=0;entryDy=0;" edge="1" parent="1" target="UhX584XFw8gSICuTclrN-4">
          <mxGeometry relative="1" as="geometry">
            <mxPoint x="840" y="950" as="targetPoint" />
            <mxPoint x="1000" y="1260" as="sourcePoint" />
            <Array as="points">
              <mxPoint x="1000" y="950" />
            </Array>
          </mxGeometry>
        </mxCell>
        <mxCell id="WDX3vNqjva9tqvP2y725-57" style="edgeStyle=orthogonalEdgeStyle;rounded=0;orthogonalLoop=1;jettySize=auto;html=1;" edge="1" parent="1">
          <mxGeometry relative="1" as="geometry">
            <mxPoint x="840" y="930" as="targetPoint" />
            <mxPoint x="1020" y="1260" as="sourcePoint" />
            <Array as="points">
              <mxPoint x="1020" y="1260" />
              <mxPoint x="1020" y="930" />
            </Array>
          </mxGeometry>
        </mxCell>
        <mxCell id="WDX3vNqjva9tqvP2y725-58" style="edgeStyle=orthogonalEdgeStyle;rounded=0;orthogonalLoop=1;jettySize=auto;html=1;" edge="1" parent="1">
          <mxGeometry relative="1" as="geometry">
            <mxPoint x="780" y="960" as="targetPoint" />
            <mxPoint x="960" y="1260" as="sourcePoint" />
            <Array as="points">
              <mxPoint x="960" y="1000" />
              <mxPoint x="780" y="1000" />
            </Array>
          </mxGeometry>
        </mxCell>
      </root>
    </mxGraphModel>
  </diagram>
</mxfile>
